<svg width="274" height="51" viewBox="0 0 274 51" fill="none" xmlns="http://www.w3.org/2000/svg">
<path d="M14.03 0.570312C9.65142 0.570312 6.06384 2.43842 3.79542 5.91572C1.84353 8.87791 1 12.5483 1 18.1507V31.6735C1 36.4387 1.63252 40.0454 2.89861 42.6856C5.16703 47.3865 9.12383 49.8333 14.3464 49.8333C19.0416 49.8333 22.5761 47.8366 24.7918 43.9085C26.3216 41.2039 27.1133 36.9539 27.1133 31.6735V18.1507C27.1133 12.7415 26.5324 9.84326 24.8442 6.94546C22.5231 2.8242 18.6723 0.570312 14.03 0.570312ZM29.1701 1.40781L45.2077 48.9958H49.0057L65.149 1.40781H60.9281L47.1595 43.0719L33.4434 1.40781H29.1701ZM69.6855 1.40781V5.71903H76.2148V5.72248H90.9983V1.4077L69.6855 1.40781ZM97.9621 1.40781V5.71634H104.565V5.72238H107.352C111.467 5.72238 114.21 6.23705 116.32 7.46057C118.958 9.00606 120.435 12.226 120.435 16.5405C120.435 21.9497 118.431 25.3625 114.527 26.586C112.68 27.1656 110.148 27.4235 105.822 27.4235L118.958 48.9956H123.811L112.891 31.223C120.382 30.257 124.392 25.2341 124.392 16.6695C124.392 10.7451 122.335 6.23751 118.536 3.72608C116.11 2.11625 112.785 1.40762 107.616 1.40762L97.9621 1.40781ZM130.722 1.40781V5.71634H135.877V5.72238H140.06C145.915 5.72238 149.766 6.68776 152.615 8.74843C157.099 12.0969 159.685 18.0857 159.685 25.1691C159.685 31.4154 157.68 36.8893 154.092 40.431C150.98 43.4575 146.97 44.6817 140.06 44.6817H134.626V27.5267H130.722V48.9956H141.22C147.076 48.9956 151.191 47.9012 154.62 45.4542C160.529 41.2042 163.641 34.2488 163.641 25.3622C163.641 16.4114 160.581 9.32781 154.831 5.14209C151.085 2.43754 146.971 1.40762 139.901 1.40762L130.722 1.40781ZM169.971 1.40781V5.71634H175.493V5.72238H179.361C183.476 5.72238 186.22 6.23705 188.33 7.46057C190.968 9.00606 192.444 12.226 192.444 16.5405C192.444 21.9497 190.44 25.3625 186.536 26.586C184.69 27.1656 182.157 27.4235 177.832 27.4235L190.967 48.9956H195.821L184.901 31.2232C192.392 30.2572 196.401 25.2343 196.401 16.6697C196.401 10.7453 194.343 6.23771 190.545 3.72628C188.118 2.11645 184.795 1.40781 179.625 1.40781H169.971ZM202.732 1.40781V48.9958H206.635V1.40781H202.732ZM211.173 1.40781L227.209 48.9958H231.008L247.151 1.40781H242.931L229.161 43.0719L215.445 1.40781H211.173ZM251.687 1.40781V5.71903H256.894V5.72248H273V1.4077L251.687 1.40781ZM14.0825 4.88509C17.195 4.88509 19.8331 6.43026 21.4684 9.13488C22.7873 11.3243 23.2621 14.0294 23.2621 19.2454V30.901C23.2621 35.0866 22.8397 38.4353 21.9956 40.3671C20.624 43.6512 17.8282 45.5185 14.1882 45.5185C10.8647 45.5185 8.22692 43.9727 6.59158 41.0106C5.37822 38.95 4.85045 35.795 4.85045 30.901V19.2454C4.85045 14.8022 5.27308 11.8402 6.22265 9.9083C7.75252 6.75293 10.6535 4.88509 14.0825 4.88509ZM69.6855 22.7841V27.0891H76.2119V27.1016H90.4179V22.7868H73.5892V22.7842L69.6855 22.7841ZM251.687 22.7841V27.0891H256.892V27.1016H272.42V22.7868H255.592V22.7842L251.687 22.7841ZM97.9621 27.527V48.9958H101.866V27.527H97.9621ZM169.971 27.527V48.9958H173.875V27.527H169.971ZM69.6855 44.6819V48.9958H90.9983V44.6819H76.2119H73.5892H69.6855ZM251.687 44.6819V48.9958H273V44.6819H256.892H255.592H251.687Z" fill="white" stroke="white"/>
<path d="M17.6765 27.4644C18.5636 27.4493 19.2727 26.5592 19.2603 25.4763C19.2479 24.3934 18.5187 23.5279 17.6316 23.5431L10.3071 23.6682C9.42004 23.6834 8.71097 24.5735 8.72339 25.6563C8.73581 26.7392 9.46501 27.6047 10.3521 27.5896L17.6765 27.4644Z" fill="white" stroke="white"/>
</svg>
