<svg width="42" height="47" viewBox="0 0 42 47" fill="none" xmlns="http://www.w3.org/2000/svg">
<path d="M36.5556 21H5.44444C2.98985 21 1 22.9898 1 25.4444V41C1 43.4546 2.98985 45.4444 5.44444 45.4444H36.5556C39.0102 45.4444 41 43.4546 41 41V25.4444C41 22.9898 39.0102 21 36.5556 21Z" stroke="black" stroke-opacity="0.25" stroke-width="2" stroke-linecap="round" stroke-linejoin="round"/>
<path d="M9.89014 21V12.1111C9.89014 9.16426 11.0608 6.33811 13.1445 4.25437C15.2282 2.17063 18.0544 1 21.0012 1C23.9481 1 26.7743 2.17063 28.858 4.25437C30.9417 6.33811 32.1124 9.16426 32.1124 12.1111V21" stroke="black" stroke-opacity="0.25" stroke-width="2" stroke-linecap="round" stroke-linejoin="round"/>
</svg>
