<?xml version="1.0" encoding="UTF-8" standalone="no"?>
<svg
   width="42"
   height="47"
   viewBox="0 0 42 47"
   fill="none"
   version="1.1"
   id="svg2"
   sodipodi:docname="iconUser_darkMode.svg"
   inkscape:version="1.3 (0e150ed6c4, 2023-07-21)"
   xmlns:inkscape="http://www.inkscape.org/namespaces/inkscape"
   xmlns:sodipodi="http://sodipodi.sourceforge.net/DTD/sodipodi-0.dtd"
   xmlns="http://www.w3.org/2000/svg"
   xmlns:svg="http://www.w3.org/2000/svg">
  <defs
     id="defs2" />
  <sodipodi:namedview
     id="namedview2"
     pagecolor="#ffffff"
     bordercolor="#000000"
     borderopacity="0.25"
     inkscape:showpageshadow="2"
     inkscape:pageopacity="0.0"
     inkscape:pagecheckerboard="0"
     inkscape:deskcolor="#d1d1d1"
     inkscape:zoom="17.191489"
     inkscape:cx="20.998762"
     inkscape:cy="48.221535"
     inkscape:window-width="1920"
     inkscape:window-height="1006"
     inkscape:window-x="0"
     inkscape:window-y="0"
     inkscape:window-maximized="1"
     inkscape:current-layer="svg2" />
  <path
     d="M41 46V41C41 38.3478 39.9464 35.8043 38.0711 33.9289C36.1957 32.0536 33.6522 31 31 31H11C8.34784 31 5.8043 32.0536 3.92893 33.9289C2.05357 35.8043 1 38.3478 1 41V46"
     stroke="black"
     stroke-opacity="0.25"
     stroke-width="2"
     stroke-linecap="round"
     stroke-linejoin="round"
     id="path1" />
  <path
     d="M21 21C26.5228 21 31 16.5228 31 11C31 5.47715 26.5228 1 21 1C15.4772 1 11 5.47715 11 11C11 16.5228 15.4772 21 21 21Z"
     stroke="black"
     stroke-opacity="0.25"
     stroke-width="2"
     stroke-linecap="round"
     stroke-linejoin="round"
     id="path2" />
  <path
     style="fill:#ffffff;fill-opacity:0.713725;stroke:#ffffff;stroke-width:0.0390248;stroke-opacity:0.713725"
     d="m 19.69244,21.895198 c -1.560361,-0.20184 -3.182016,-0.774995 -4.477912,-1.582666 -2.482182,-1.547028 -4.28306,-4.081023 -4.910358,-6.909309 -0.551322,-2.485731 -0.255469,-4.9697344 0.861995,-7.2373814 2.667091,-5.4122721 9.186001,-7.6593802 14.602399,-5.0335361 5.53536,2.6835165 7.78698,9.3669995 4.997776,14.8348975 -1.673064,3.27984 -4.822477,5.473154 -8.515433,5.930318 -0.567631,0.07027 -2.007385,0.06896 -2.558467,-0.0023 z m 2.818699,-1.998804 c 5.066847,-0.844058 8.418928,-5.828448 7.2995,-10.854021 -0.58862,-2.6425552 -2.32731,-4.8755074 -4.750334,-6.1007244 -1.442711,-0.7295149 -3.099026,-1.0553584 -4.7364,-0.9317817 -1.6472,0.1243183 -3.214305,0.6877877 -4.573247,1.6443597 -0.665759,0.4686336 -1.634732,1.4419291 -2.110268,2.1196813 -2.16246,3.0820194 -2.221525,7.1111941 -0.149832,10.2210161 1.411591,2.118941 3.753466,3.608363 6.170333,3.924302 0.255941,0.03346 0.543874,0.07204 0.639852,0.08574 0.323151,0.04613 1.682538,-0.02064 2.210396,-0.108574 z"
     id="path3" />
  <path
     style="fill:#ffffff;fill-opacity:0.713725;stroke:#ffffff;stroke-width:0.0390248;stroke-opacity:0.713725"
     d="M 0.55566675,46.841583 C 0.3783124,46.746588 0.25486255,46.623383 0.1630306,46.449727 L 0.02908416,46.19643 v -2.872476 c 0,-1.632688 0.02665351,-3.116268 0.0617538,-3.437323 0.56273281,-5.147193 4.50696254,-9.144899 9.65082934,-9.781677 0.6824507,-0.08448 21.8317397,-0.08448 22.5141897,0 3.77579,0.467418 6.963219,2.738364 8.609362,6.133907 0.568251,1.172146 0.897688,2.32576 1.041693,3.64777 0.0348,0.319499 0.06153,1.812547 0.06153,3.437323 v 2.872476 l -0.133947,0.253297 c -0.153972,0.291166 -0.523507,0.521189 -0.837297,0.521189 -0.2662,0 -0.618392,-0.188989 -0.78345,-0.420404 l -0.135777,-0.190363 -0.03548,-3.14109 c -0.03809,-3.372233 -0.05794,-3.623286 -0.372205,-4.707752 -0.404934,-1.397342 -1.096511,-2.619751 -2.071966,-3.662341 -1.362921,-1.456721 -2.984467,-2.334853 -5.082231,-2.752231 -0.491988,-0.09789 -1.185592,-0.104161 -11.517327,-0.104161 H 10.00495 L 9.3502428,32.12527 c -1.8577564,0.376528 -3.3949141,1.183954 -4.6715424,2.45383 -1.1790465,1.172811 -1.9018522,2.3807 -2.3499696,3.927059 -0.3181707,1.097941 -0.3364712,1.3328 -0.3649054,4.68301 -0.029022,3.419494 -0.015131,3.293673 -0.3956719,3.583925 -0.2941185,0.224335 -0.67359982,0.250005 -1.01248675,0.06849 z"
     id="path4" />
</svg>
