<?xml version="1.0" encoding="UTF-8" standalone="no"?>
<svg
   width="42"
   height="47"
   viewBox="0 0 42 47"
   fill="none"
   version="1.1"
   id="svg2"
   sodipodi:docname="iconLock_darkMode.svg"
   inkscape:version="1.3 (0e150ed6c4, 2023-07-21)"
   xmlns:inkscape="http://www.inkscape.org/namespaces/inkscape"
   xmlns:sodipodi="http://sodipodi.sourceforge.net/DTD/sodipodi-0.dtd"
   xmlns="http://www.w3.org/2000/svg"
   xmlns:svg="http://www.w3.org/2000/svg">
  <defs
     id="defs2" />
  <sodipodi:namedview
     id="namedview2"
     pagecolor="#ffffff"
     bordercolor="#000000"
     borderopacity="0.25"
     inkscape:showpageshadow="2"
     inkscape:pageopacity="0.0"
     inkscape:pagecheckerboard="0"
     inkscape:deskcolor="#d1d1d1"
     inkscape:zoom="17.191489"
     inkscape:cx="20.998762"
     inkscape:cy="12.040842"
     inkscape:window-width="1920"
     inkscape:window-height="1006"
     inkscape:window-x="0"
     inkscape:window-y="0"
     inkscape:window-maximized="1"
     inkscape:current-layer="svg2" />
  <path
     d="M36.5556 21H5.44444C2.98985 21 1 22.9898 1 25.4444V41C1 43.4546 2.98985 45.4444 5.44444 45.4444H36.5556C39.0102 45.4444 41 43.4546 41 41V25.4444C41 22.9898 39.0102 21 36.5556 21Z"
     stroke="black"
     stroke-opacity="0.25"
     stroke-width="2"
     stroke-linecap="round"
     stroke-linejoin="round"
     id="path1" />
  <path
     d="M9.89014 21V12.1111C9.89014 9.16426 11.0608 6.33811 13.1445 4.25437C15.2282 2.17063 18.0544 1 21.0012 1C23.9481 1 26.7743 2.17063 28.858 4.25437C30.9417 6.33811 32.1124 9.16426 32.1124 12.1111V21"
     stroke="black"
     stroke-opacity="0.25"
     stroke-width="2"
     stroke-linecap="round"
     stroke-linejoin="round"
     id="path2" />
  <path
     style="fill:#ffffff;fill-opacity:0.713725;stroke:#ffffff;stroke-width:0.0390248;stroke-opacity:0.713725"
     d="M 4.3044554,46.292916 C 3.0629037,46.028151 1.7838377,45.185333 1.0385488,44.140904 0.70284766,43.670461 0.34564554,42.90015 0.18624352,42.302897 L 0.05816832,41.82302 V 33.214109 24.605198 L 0.19399089,24.110797 C 0.71952853,22.197812 2.1195788,20.777339 4.042698,20.205947 4.4528178,20.084093 4.6105449,20.074948 6.6748144,20.053338 l 2.1958539,-0.02299 v 0.587869 c 0,0.681437 0.065026,0.883135 0.3714536,1.152182 L 9.4563994,21.95854 H 7.3287798 c -2.4002976,0 -2.7271746,0.03671 -3.44108,0.386464 -0.8036515,0.39372 -1.4225301,1.115354 -1.7498701,2.040409 l -0.1601069,0.452458 v 8.376238 8.376238 l 0.1586597,0.465346 c 0.3957657,1.160774 1.295471,2.00009 2.4644993,2.299077 0.4420617,0.11306 0.7057719,0.114908 16.3978802,0.114908 15.692109,0 15.955819,-0.0018 16.397881,-0.114908 0.653645,-0.167174 1.10298,-0.426578 1.611219,-0.930164 0.33561,-0.332539 0.491891,-0.543429 0.648039,-0.874482 0.385539,-0.817393 0.363901,-0.258799 0.363901,-9.394183 v -8.31807 L 39.85617,24.372525 c -0.430037,-1.222969 -1.386641,-2.073851 -2.611453,-2.322841 -0.358331,-0.07284 -0.878056,-0.09134 -2.58849,-0.09212 l -2.140138,-9.8e-4 0.185552,-0.118856 c 0.312783,-0.200355 0.425215,-0.520467 0.425215,-1.210654 v -0.59672 l 2.195854,0.02299 c 2.067597,0.02164 2.221108,0.03057 2.628204,0.152888 1.945344,0.584481 3.329721,1.988262 3.854402,3.908429 l 0.13404,0.490543 v 8.608911 8.608911 l -0.131221,0.49443 c -0.157623,0.593904 -0.508201,1.345645 -0.852681,1.82839 -0.555866,0.778977 -1.51474,1.52664 -2.418944,1.886126 -0.965405,0.383818 0.334297,0.357754 -17.578921,0.352524 -14.1729052,-0.0041 -16.297913,-0.01582 -16.6531336,-0.09157 z"
     id="path3" />
  <path
     style="fill:#ffffff;fill-opacity:0.713725;stroke:#ffffff;stroke-width:0.0390248;stroke-opacity:0.713725"
     d="m 8.9435964,15.370978 c 0.02236,-5.009474 0.015655,-4.895502 0.3704023,-6.2959097 0.2698135,-1.065123 0.8312763,-2.3725443 1.4350283,-3.3416081 0.664172,-1.0660405 1.777942,-2.3246555 2.694261,-3.0446455 2.503151,-1.96683048 5.641572,-2.90117312 8.72328,-2.59701718 2.788181,0.27518557 5.3729,1.49946568 7.35491,3.48373328 1.973327,1.9755739 3.147549,4.4041722 3.487549,7.2131662 0.03584,0.296124 0.05966,2.22938 0.05966,4.842512 v 4.349608 H 32.10891 31.149133 v -4.123788 c 0,-2.477777 -0.02453,-4.36423 -0.06146,-4.726175 C 30.61921,6.5396347 27.214952,2.8896751 22.685647,2.1224136 21.67355,1.9509651 20.300719,1.9485611 19.340968,2.1165536 c -2.130827,0.3729818 -3.948474,1.2985398 -5.439014,2.7695819 -1.7346,1.7119099 -2.742492,3.8347352 -2.992533,6.3028835 -0.03631,0.358382 -0.06103,2.261006 -0.06103,4.697091 v 4.094704 H 9.8857055 8.9230199 Z"
     id="path4" />
  <path
     style="fill:#ffffff;fill-opacity:0.713725;stroke:#ffffff;stroke-width:0.0390248;stroke-opacity:0.713725"
     d="M 9.5686881,21.919699 C 9.1009554,21.727168 8.9318558,21.379323 8.9301141,20.606126 l -0.00128,-0.567141 H 9.8936169 10.8584 l -0.01955,0.66489 c -0.02106,0.716425 -0.06874,0.84336 -0.413366,1.100664 -0.155835,0.116348 -0.6820821,0.187079 -0.8568014,0.11516 z"
     id="path5" />
  <path
     style="fill:#ffffff;fill-opacity:0.713725;stroke:#ffffff;stroke-width:0.0390248;stroke-opacity:0.713725"
     d="M 31.683097,21.860715 C 31.57687,21.808368 31.419815,21.673679 31.334087,21.561407 31.189839,21.372494 31.17676,21.30813 31.15867,20.69813 l -0.01955,-0.659145 h 0.964782 0.964783 v 0.543919 c 0,0.590339 -0.06455,0.862874 -0.255273,1.077749 -0.258892,0.291678 -0.763247,0.380947 -1.130318,0.200062 z"
     id="path6" />
  <path
     style="fill:#ffffff;fill-opacity:0.713725;stroke:#ffffff;stroke-width:0.0390248;stroke-opacity:0.713725"
     d="m 10.481344,21.837724 c 0.30509,-0.195426 0.43364,-0.540591 0.424948,-1.14101 -0.0041,-0.281769 -0.0057,-0.545028 -0.0036,-0.585018 0.0031,-0.05787 2.063111,-0.07271 10.096045,-0.07271 9.57138,0 10.092402,0.0053 10.096045,0.101795 0.0021,0.05599 5.38e-4,0.330832 -0.0035,0.610767 -0.0045,0.314795 0.01549,0.508973 0.0525,0.508973 0.03291,0 0.0446,0.03973 0.02596,0.08829 -0.02142,0.05582 0.06201,0.184172 0.226845,0.34901 l 0.260724,0.260724 -10.680774,-9.8e-4 -10.680775,-9.8e-4 z"
     id="path7" />
</svg>
