<?xml version="1.0" encoding="UTF-8" standalone="no"?>
<svg
   width="78"
   height="56"
   viewBox="0 0 78 56"
   fill="none"
   version="1.1"
   id="svg2"
   sodipodi:docname="mail-icon_darkMode.svg"
   inkscape:version="1.3 (0e150ed6c4, 2023-07-21)"
   xmlns:inkscape="http://www.inkscape.org/namespaces/inkscape"
   xmlns:sodipodi="http://sodipodi.sourceforge.net/DTD/sodipodi-0.dtd"
   xmlns="http://www.w3.org/2000/svg"
   xmlns:svg="http://www.w3.org/2000/svg">
  <defs
     id="defs2" />
  <sodipodi:namedview
     id="namedview2"
     pagecolor="#ffffff"
     bordercolor="#000000"
     borderopacity="0.25"
     inkscape:showpageshadow="2"
     inkscape:pageopacity="0.0"
     inkscape:pagecheckerboard="0"
     inkscape:deskcolor="#d1d1d1"
     inkscape:zoom="9.7948718"
     inkscape:cx="39"
     inkscape:cy="27.973822"
     inkscape:window-width="1920"
     inkscape:window-height="1006"
     inkscape:window-x="0"
     inkscape:window-y="0"
     inkscape:window-maximized="1"
     inkscape:current-layer="svg2" />
  <path
     d="M20.42 16.736L38.84 29.63L57.26 16.736"
     stroke="black"
     stroke-opacity="0.25"
     stroke-width="3"
     stroke-linecap="round"
     stroke-linejoin="round"
     id="path1" />
  <path
     d="M2 46.208V9.368C2 5.29876 5.29876 2 9.368 2H68.312C72.3813 2 75.68 5.29876 75.68 9.368V46.208C75.68 50.2773 72.3813 53.576 68.312 53.576H9.368C5.29876 53.576 2 50.2773 2 46.208Z"
     stroke="black"
     stroke-opacity="0.25"
     stroke-width="3"
     id="path2" />
  <path
     style="fill:#ffffff;fill-opacity:0.713725;stroke:#ffffff;stroke-width:0.0684945;stroke-opacity:0.713725"
     d="M 7.280074,54.770262 C 4.2114751,54.014048 1.7509879,51.61314 0.84885018,48.494764 L 0.61256545,47.67801 V 27.820681 C 0.61256545,5.3156823 0.52822403,7.4826272 1.4808171,5.513089 2.357266,3.7009833 3.7017959,2.3565798 5.513089,1.481196 6.0746073,1.2098185 6.8326571,0.90354665 7.197644,0.80059178 7.8332909,0.6212896 9.1476777,0.6120808 38.387435,0.58207147 60.827522,0.55904077 69.111662,0.58149832 69.66128,0.66685203 73.062993,1.1951261 75.782572,3.6288336 76.845115,7.0955497 l 0.234688,0.7657068 0.03108,19.3979055 c 0.02195,13.704149 -0.0019,19.629401 -0.08111,20.186578 -0.468779,3.295628 -2.792186,6.054284 -6.023225,7.151576 l -0.969896,0.329386 -30.985602,0.01855 C 8.9440096,54.963279 8.0431766,54.958318 7.280074,54.770262 Z m 62.385684,-2.807408 c 1.083846,-0.255497 1.918051,-0.730581 2.773193,-1.579346 0.844812,-0.838512 1.314172,-1.618905 1.603424,-2.665977 0.169194,-0.612467 0.180138,-1.827528 0.180138,-19.998945 V 8.3717277 L 73.944041,7.5549738 C 73.214442,5.4150714 71.509668,3.9365727 69.340182,3.5621864 68.626869,3.4390905 64.001735,3.4214816 38.385599,3.4443356 9.4211327,3.4701768 8.2481636,3.4784079 7.7081152,3.6596068 6.7145623,3.9929671 5.9419483,4.4706082 5.2062783,5.2062783 4.444554,5.9680025 3.965744,6.7579623 3.6589254,7.7591623 3.4795013,8.3446529 3.4712042,9.2290986 3.4712042,27.769634 c 0,18.529463 0.00839,19.425091 0.1873852,20.005133 0.645561,2.091962 2.2983581,3.693635 4.3150856,4.181611 0.9331354,0.225785 60.735119,0.232063 61.692083,0.0065 z"
     id="path3" />
  <path
     style="fill:#ffffff;fill-opacity:0.713725;stroke:#ffffff;stroke-width:0.0684945;stroke-opacity:0.713725"
     d="M 38.230356,30.904934 C 37.593101,30.575369 19.712416,18.017667 19.378553,17.66521 c -0.447339,-0.472252 -0.521716,-0.943866 -0.240479,-1.524826 0.163754,-0.338271 0.333685,-0.511166 0.655532,-0.66697 0.510889,-0.247317 0.672556,-0.257733 1.113469,-0.07174 0.18069,0.07622 4.276913,2.903209 9.102719,6.282194 4.825804,3.378985 8.830546,6.121983 8.899424,6.095552 0.06888,-0.02643 4.041453,-2.789932 8.827945,-6.141115 4.786491,-3.351182 8.863555,-6.160264 9.060143,-6.242403 0.474357,-0.198199 0.954765,-0.09851 1.39717,0.289927 0.639757,0.561714 0.674236,1.485748 0.07646,2.049088 -0.358272,0.337632 -18.333747,12.924973 -18.807573,13.170018 -0.194366,0.100519 -0.471793,0.182762 -0.616502,0.182762 -0.14471,0 -0.422137,-0.08224 -0.616503,-0.182762 z"
     id="path4" />
</svg>
