<?xml version="1.0" encoding="UTF-8" standalone="no"?>
<svg
   width="78"
   height="77"
   viewBox="0 0 78 77"
   fill="none"
   version="1.1"
   id="svg1"
   sodipodi:docname="phone-icon_darkMode.svg"
   inkscape:version="1.3 (0e150ed6c4, 2023-07-21)"
   xmlns:inkscape="http://www.inkscape.org/namespaces/inkscape"
   xmlns:sodipodi="http://sodipodi.sourceforge.net/DTD/sodipodi-0.dtd"
   xmlns="http://www.w3.org/2000/svg"
   xmlns:svg="http://www.w3.org/2000/svg">
  <defs
     id="defs1" />
  <sodipodi:namedview
     id="namedview1"
     pagecolor="#ffffff"
     bordercolor="#000000"
     borderopacity="0.25"
     inkscape:showpageshadow="2"
     inkscape:pageopacity="0.0"
     inkscape:pagecheckerboard="0"
     inkscape:deskcolor="#d1d1d1"
     inkscape:zoom="9.7948718"
     inkscape:cx="39"
     inkscape:cy="38.489529"
     inkscape:window-width="1920"
     inkscape:window-height="1006"
     inkscape:window-x="0"
     inkscape:window-y="0"
     inkscape:window-maximized="1"
     inkscape:current-layer="svg1" />
  <path
     d="M61.2379 49.2572L45.9164 52.2261C35.5672 47.0316 29.1743 41.0648 25.4539 31.7636L28.3184 16.3978L22.9036 2H8.94843C4.75343 2 1.45 5.46665 2.07653 9.61458C3.64064 19.9698 8.25244 38.7451 21.7334 52.2261C35.8905 66.3832 56.2804 72.5264 67.5024 74.9682C71.836 75.9113 75.68 72.5305 75.68 68.0957V54.7605L61.2379 49.2572Z"
     stroke="black"
     stroke-opacity="0.25"
     stroke-width="3"
     stroke-linecap="round"
     stroke-linejoin="round"
     id="path1" />
  <path
     style="fill:#ffffff;fill-opacity:0.713725;stroke:#ffffff;stroke-width:0.0684945;stroke-opacity:0.713725"
     d="m 68.045812,76.514852 c -0.72013,-0.09069 -2.196829,-0.415912 -4.4411,-0.978079 C 43.914602,70.6046 27.911538,61.748328 17.961246,50.277177 11.779756,43.150872 6.940913,34.034177 3.7119782,23.430628 2.5859935,19.732989 1.5299848,15.174246 0.85526308,11.098312 0.37187774,8.1782246 0.50996025,6.8425884 1.4912489,4.9465867 2.572994,2.8564878 4.7312906,1.2522611 7.1265525,0.75795747 7.9992075,0.57787004 8.6020391,0.56413309 15.671466,0.5632412 c 7.360254,-9.286e-4 7.616563,0.005468 7.93228,0.19797316 0.179442,0.10941303 0.395363,0.30449654 0.479824,0.43351894 0.225755,0.3448611 5.676901,14.8924697 5.676901,15.1500827 0,0.120527 -0.623643,3.56738 -1.385875,7.659675 -0.854969,4.590182 -1.362923,7.5554 -1.325961,7.740378 0.08982,0.44953 1.462907,3.227189 2.198555,4.447539 3.06634,5.086685 7.310807,9.061377 13.584853,12.72141 0.759979,0.443343 1.816655,1.02974 2.348168,1.303107 l 0.966386,0.497029 7.417713,-1.441401 c 4.079742,-0.792771 7.548394,-1.441557 7.708115,-1.441747 0.406584,-4.86e-4 15.038942,5.588585 15.333479,5.856876 0.544447,0.495929 0.526397,0.22093 0.524953,7.997693 -0.0012,6.660938 -0.01633,7.300871 -0.192345,8.153698 -0.376772,1.825543 -1.192732,3.280137 -2.563219,4.569392 -1.66907,1.570143 -4.117525,2.384963 -6.329481,2.106387 z m 2.191456,-3.010359 c 1.779247,-0.463434 3.193704,-1.907241 3.797423,-3.876221 0.174153,-0.567984 0.187822,-1.095248 0.187822,-7.244762 v -6.632196 l -6.534031,-2.490851 -6.534032,-2.490849 -0.867801,0.157019 c -0.47729,0.08636 -3.841657,0.734565 -7.47637,1.440455 -3.634712,0.705889 -6.750594,1.283436 -6.924181,1.283436 -0.524339,0 -4.040385,-1.871865 -6.575219,-3.5005 -6.502304,-4.177743 -10.781709,-8.7742 -13.824562,-14.848793 -0.946569,-1.889681 -1.442845,-3.098744 -1.444266,-3.518619 -6.29e-4,-0.185673 0.623902,-3.69468 1.387846,-7.797797 l 1.388989,-7.46021 -2.311143,-6.1529 C 23.236615,6.9876102 22.123877,4.0370551 22.034995,3.8149161 l -0.161604,-0.403889 -7.006067,0.032994 C 8.4240872,3.4743639 7.8161471,3.4919164 7.2997382,3.662512 5.2355322,4.3444219 3.8254794,5.9089084 3.5124805,7.8645624 3.3760857,8.7167731 3.5598058,10.114763 4.2902289,13.782723 7.0174052,27.477758 12.514947,39.539858 19.971338,48.188482 c 9.424099,10.930955 24.513166,19.39599 43.231583,24.253113 4.713499,1.223076 5.793093,1.386204 7.034347,1.062898 z"
     id="path2" />
</svg>
