<?xml version="1.0" encoding="UTF-8" standalone="no"?>
<!-- Uploaded to: SVG Repo, www.svgrepo.com, Generator: SVG Repo Mixer Tools -->

<svg
   fill="#000000"
   height="800px"
   width="800px"
   version="1.1"
   id="Capa_1"
   viewBox="0 0 460.775 460.775"
   xml:space="preserve"
   sodipodi:docname="xIcon_darkMode.svg"
   inkscape:version="1.3 (0e150ed6c4, 2023-07-21)"
   xmlns:inkscape="http://www.inkscape.org/namespaces/inkscape"
   xmlns:sodipodi="http://sodipodi.sourceforge.net/DTD/sodipodi-0.dtd"
   xmlns="http://www.w3.org/2000/svg"
   xmlns:svg="http://www.w3.org/2000/svg"><defs
   id="defs1" /><sodipodi:namedview
   id="namedview1"
   pagecolor="#ffffff"
   bordercolor="#000000"
   borderopacity="0.25"
   inkscape:showpageshadow="2"
   inkscape:pageopacity="0.0"
   inkscape:pagecheckerboard="0"
   inkscape:deskcolor="#d1d1d1"
   inkscape:zoom="0.955"
   inkscape:cx="400"
   inkscape:cy="400"
   inkscape:window-width="1920"
   inkscape:window-height="1006"
   inkscape:window-x="0"
   inkscape:window-y="0"
   inkscape:window-maximized="1"
   inkscape:current-layer="Capa_1" />&#10;<path
   d="M285.08,230.397L456.218,59.27c6.076-6.077,6.076-15.911,0-21.986L423.511,4.565c-2.913-2.911-6.866-4.55-10.992-4.55  c-4.127,0-8.08,1.639-10.993,4.55l-171.138,171.14L59.25,4.565c-2.913-2.911-6.866-4.55-10.993-4.55  c-4.126,0-8.08,1.639-10.992,4.55L4.558,37.284c-6.077,6.075-6.077,15.909,0,21.986l171.138,171.128L4.575,401.505  c-6.074,6.077-6.074,15.911,0,21.986l32.709,32.719c2.911,2.911,6.865,4.55,10.992,4.55c4.127,0,8.08-1.639,10.994-4.55  l171.117-171.12l171.118,171.12c2.913,2.911,6.866,4.55,10.993,4.55c4.128,0,8.081-1.639,10.992-4.55l32.709-32.719  c6.074-6.075,6.074-15.909,0-21.986L285.08,230.397z"
   id="path1" />&#10;<path
   style="fill:#ffffff;fill-opacity:0.713725;stroke:#ffffff;stroke-width:0.702507;stroke-opacity:0.713725"
   d="m 75.39267,797.93936 c -2.303665,-0.86501 -4.406514,-1.57984 -4.672999,-1.58851 C 69.136899,796.29934 5.2022584,731.1887 3.3565771,727.74869 0.20783372,721.88001 0.21189058,710.56704 3.364838,704.71204 4.7093191,702.21535 66.12994,640.04257 155.42798,550.78671 237.82217,468.43145 305.2356,400.57742 305.2356,400 c 0,-0.57742 -67.41343,-68.43145 -149.80762,-150.78671 C 66.12994,159.95743 4.7093191,97.784648 3.364838,95.287958 0.39636021,89.77552 0.21259948,78.150169 3.0089758,72.774869 5.6299917,67.736653 67.06031,6.155811 72.251309,3.3628695 78.116288,0.20730294 89.426237,0.20826934 95.287958,3.364838 97.784648,4.7093191 159.95743,66.12994 249.21329,155.42798 331.56855,237.82217 399.42258,305.2356 400,305.2356 c 0.57742,0 68.43145,-67.41343 150.78671,-149.80762 C 640.04257,66.12994 702.21535,4.7093191 704.71204,3.364838 c 5.86172,-3.15656866 17.17168,-3.15753506 23.03665,-0.00197 5.191,2.7929415 66.62132,64.373784 69.24234,69.411999 2.79637,5.3753 2.61261,17.000652 -0.35587,22.51309 -1.34448,2.49669 -62.7651,64.669473 -152.06314,153.925333 C 562.17783,331.56855 494.7644,399.42258 494.7644,400 c 0,0.57742 67.41343,68.43145 149.80762,150.78671 89.29804,89.25586 150.71866,151.42864 152.06314,153.92533 2.96848,5.51244 3.15224,17.13779 0.35587,22.51309 -2.62102,5.03822 -64.05134,66.61906 -69.24234,69.412 -5.86497,3.15557 -17.17493,3.1546 -23.03665,-0.002 -2.49669,-1.34448 -64.66947,-62.7651 -153.92533,-152.06314 C 468.43145,562.17783 400.57742,494.7644 400,494.7644 c -0.57742,0 -68.43145,67.41343 -150.78671,149.80762 -91.48685,91.5301 -151.336748,150.6405 -153.849529,151.94862 -5.383793,2.80272 -14.550961,3.45395 -19.971091,1.41872 z"
   id="path2"
   transform="scale(0.57596875)" /></svg>
