<svg width="28" height="37" viewBox="0 0 28 37" fill="none" xmlns="http://www.w3.org/2000/svg">
<path d="M18.4623 26.4445V30.6749C18.4623 33.0636 16.491 35 14.0588 35C11.6499 35 9.68816 33.0992 9.65552 30.7336L9.59648 26.4445M18.4623 26.4445H9.59648M18.4623 26.4445C18.4623 24.9708 19.4161 23.6909 20.6746 22.8888C23.8861 20.8418 26 17.3591 26 13.4074C26 7.10727 20.6274 2 14 2C7.37259 2 2 7.10727 2 13.4074C2 17.3589 4.11361 20.8414 7.32476 22.8883C8.58906 23.6944 9.56072 24.9645 9.59648 26.4445" stroke="black" stroke-width="3" stroke-linecap="round"/>
</svg>
