<?xml version="1.0" encoding="UTF-8" standalone="no"?>
<!-- Created with Inkscape (http://www.inkscape.org/) -->

<svg
   width="18.930075mm"
   height="28.923573mm"
   viewBox="0 0 18.930074 28.923573"
   version="1.1"
   id="svg1"
   inkscape:version="1.3 (0e150ed6c4, 2023-07-21)"
   sodipodi:docname="logo_title.svg"
   inkscape:export-filename="logo_title.png"
   inkscape:export-xdpi="96"
   inkscape:export-ydpi="96"
   xmlns:inkscape="http://www.inkscape.org/namespaces/inkscape"
   xmlns:sodipodi="http://sodipodi.sourceforge.net/DTD/sodipodi-0.dtd"
   xmlns:xlink="http://www.w3.org/1999/xlink"
   xmlns="http://www.w3.org/2000/svg"
   xmlns:svg="http://www.w3.org/2000/svg">
  <sodipodi:namedview
     id="namedview1"
     pagecolor="#ffffff"
     bordercolor="#000000"
     borderopacity="0.25"
     inkscape:showpageshadow="2"
     inkscape:pageopacity="0.0"
     inkscape:pagecheckerboard="0"
     inkscape:deskcolor="#d1d1d1"
     inkscape:document-units="mm"
     inkscape:zoom="5.7584736"
     inkscape:cx="70.852109"
     inkscape:cy="49.492282"
     inkscape:window-width="1920"
     inkscape:window-height="1006"
     inkscape:window-x="0"
     inkscape:window-y="0"
     inkscape:window-maximized="1"
     inkscape:current-layer="layer1"
     showguides="true" />
  <defs
     id="defs1">
    <linearGradient
       id="linearGradient2"
       inkscape:collect="always">
      <stop
         style="stop-color:#1666d9;stop-opacity:1;"
         offset="0.3062937"
         id="stop2" />
      <stop
         style="stop-color:#1666d9;stop-opacity:0;"
         offset="1"
         id="stop3" />
    </linearGradient>
    <linearGradient
       id="swatch46"
       inkscape:swatch="solid">
      <stop
         style="stop-color:#000000;stop-opacity:1;"
         offset="0"
         id="stop46" />
    </linearGradient>
    <linearGradient
       inkscape:collect="always"
       xlink:href="#linearGradient2"
       id="linearGradient3"
       x1="0.090554386"
       y1="65.272758"
       x2="193.19231"
       y2="65.272758"
       gradientUnits="userSpaceOnUse" />
    <clipPath
       clipPathUnits="userSpaceOnUse"
       id="clipPath2">
      <rect
         style="fill:none;stroke-width:0"
         id="rect3"
         width="28.670794"
         height="33.08168"
         x="-8.4539547"
         y="46.677357" />
    </clipPath>
    <linearGradient
       inkscape:collect="always"
       xlink:href="#linearGradient2"
       id="linearGradient4"
       gradientUnits="userSpaceOnUse"
       x1="0.090554386"
       y1="65.272758"
       x2="193.19231"
       y2="65.272758" />
    <clipPath
       clipPathUnits="userSpaceOnUse"
       id="clipPath6">
      <rect
         style="fill:none;stroke:#44d700;stroke-width:0.7;stroke-dasharray:none;stroke-opacity:1"
         id="rect8"
         width="25.362623"
         height="31.151918"
         x="-5.8825269"
         y="49.294727" />
    </clipPath>
    <clipPath
       clipPathUnits="userSpaceOnUse"
       id="clipPath10">
      <rect
         style="fill:none;stroke:#44d700;stroke-width:0.7;stroke-dasharray:none;stroke-opacity:1"
         id="rect10"
         width="22.651764"
         height="31.887068"
         x="-3.6311345"
         y="48.421741" />
    </clipPath>
  </defs>
  <g
     inkscape:label="Layer 1"
     inkscape:groupmode="layer"
     id="layer1"
     transform="translate(-8.4491669,-80.788218)">
    <g
       id="g6"
       transform="translate(8.3586125,29.977244)"
       style="fill:url(#linearGradient3);fill-opacity:1"
       clip-path="url(#clipPath10)">
      <path
         id="rect7"
         style="fill:url(#linearGradient4);fill-opacity:1;stroke:#000000;stroke-width:0.320153"
         d="m 65.610339,-12.275878 c 0.63075,0 1.138538,0.507788 1.138538,1.138537 v 5.1917329 c 0,0.6307497 -0.507788,1.1385374 -1.138538,1.1385374 -0.63075,0 -1.138537,-0.5077877 -1.138537,-1.1385374 v -5.1917329 c 0,-0.630749 0.507787,-1.138537 1.138537,-1.138537 z m -14.511528,3.5044204 c -0.04343,3.1030486 1.005546,5.6606968 3.001862,7.2965474 1.700404,1.4073481 3.822977,2.03497604 7.075537,2.0805001 l 7.850951,0.10988487 c 2.766543,0.0387216 4.86674,-0.38023233 6.412129,-1.25603929 2.751686,-1.56939578 4.211475,-4.35364618 4.263278,-8.05483978 0.04657,-3.3273657 -1.077577,-5.8484487 -3.336156,-7.4505867 -1.555009,-1.106173 -4.014602,-1.701726 -7.080233,-1.744634 l -7.850951,-0.109885 c -3.140401,-0.04395 -4.82881,0.344152 -6.527931,1.516959 -2.415704,1.6115 -3.762438,4.322146 -3.808486,7.6120934 z m 0.636402,-10.7227524 27.787243,-10.978941 0.03767,-2.691563 -27.468039,-11.827251 -0.04187,2.991256 24.052344,10.096177 -24.324966,9.381859 z m 0.401875,-28.712751 2.50296,0.03503 0.06476,-4.627167 0.002,2.8e-5 0.146638,-10.47689 -2.505028,-0.03506 z m 0.280476,-20.039189 2.501408,0.03501 0.06549,-4.67936 0.0035,4.9e-5 0.02765,-1.975396 c 0.04081,-2.916089 0.366826,-4.855953 1.098095,-6.341454 0.923432,-1.856747 2.807485,-2.87709 5.312323,-2.842032 3.140437,0.04396 5.10193,1.492074 5.773547,4.268559 0.318161,1.313223 0.442791,3.110219 0.399883,6.17585 l 12.654401,-9.133823 0.04815,-3.43976 -10.426572,7.5944 c -0.486489,-5.316649 -3.362905,-8.198789 -8.335229,-8.268384 -3.439524,-0.04814 -6.076917,1.373186 -7.572652,4.044551 -0.958691,1.706683 -1.403079,4.056688 -1.454359,7.720498 z m 0.324946,-23.216463 2.501409,0.03501 0.05113,-3.653166 0.0035,4.9e-5 0.04149,-2.964388 c 0.05808,-4.149832 0.656748,-6.871142 1.881364,-8.873222 1.988525,-3.15061 5.491046,-4.93418 9.603491,-4.87662 3.626423,0.0507 6.784479,1.5162 8.805136,4.08721 1.726245,2.23037 2.39718,5.08166 2.328632,9.979211 l -0.05389,3.85055 -9.959655,-0.139399 -0.03873,2.767004 12.464168,0.174453 0.104135,-7.440161 c 0.05808,-4.149858 -0.536433,-7.074988 -1.923093,-9.524938 -2.40885,-4.22175 -6.416079,-6.48384 -11.575338,-6.55605 -5.196611,-0.0727 -9.339465,2.0381 -11.826604,6.07914 -1.607335,2.63241 -2.246095,5.54018 -2.316213,10.54989 z m 0.389312,-27.815217 2.501409,0.035 0.05478,-3.91359 0.0035,5e-5 0.03837,-2.74117 c 0.04082,-2.91608 0.366834,-4.85646 1.098103,-6.34197 0.923431,-1.85675 2.807485,-2.87709 5.312323,-2.84203 3.140437,0.0439 5.10193,1.49207 5.773547,4.26856 0.318161,1.31322 0.442791,3.11022 0.399883,6.17585 l 12.654401,-9.13382 0.04814,-3.43976 -10.426456,7.5944 c -0.486488,-5.31665 -3.362905,-8.19879 -8.335229,-8.26839 -3.439524,-0.0481 -6.076924,1.37371 -7.572659,4.04507 -0.958691,1.70668 -1.403072,4.05617 -1.454352,7.71998 z m 0.324954,-23.21698 27.628165,0.38669 0.03872,-2.76648 -27.628164,-0.3867 z m 0.08373,-5.982 27.787235,-10.97842 0.03768,-2.69208 -27.468046,-11.82673 -0.04186,2.99074 24.052337,10.09669 -24.324967,9.38186 z m 0.401867,-28.71223 2.502961,0.035 0.05165,-3.68986 0.002,3e-5 0.159757,-11.4142 -2.505029,-0.0351 z M 53.604361,-8.7735988 c 0.03087,-2.2057812 0.954127,-4.0627862 2.540567,-5.1997762 1.284212,-0.916864 2.859415,-1.231343 5.887658,-1.188959 l 6.766884,0.09471 c 2.430068,0.03401 4.369995,0.360576 5.483207,0.974454 1.893054,0.998694 2.949399,2.995217 2.913293,5.5748257 -0.03297,2.3553274 -0.956553,4.2121425 -2.692503,5.3470097 -1.208391,0.8431477 -3.045308,1.1915331 -5.886622,1.151765 l -6.766885,-0.094712 c -2.579614,-0.036105 -4.295066,-0.3596821 -5.407232,-1.0483274 -1.816743,-1.1098368 -2.87238,-3.180894 -2.838367,-5.6109919 z m 10.943154,-39.2596612 2.499345,0.03498 0.06473,-4.625103 0.0073,1.01e-4 0.140911,-10.067647 -2.505029,-0.03506 -0.166924,11.926268 -0.0015,-2.1e-5 z m 1.805281,-128.98208 2.499346,0.035 0.05162,-3.6883 0.0073,1e-4 0.154023,-11.00446 -2.505029,-0.0351 -0.166917,11.92575 -0.0015,-2e-5 z m 1.228765,108.981431 12.464167,0.174453 0.03872,-2.766483 -12.464168,-0.174454 z m 0.714258,-51.031681 12.464168,0.17445 0.03873,-2.767 -12.464168,-0.17445 z m 8.96492,71.210269 2.504513,0.03505 0.211402,-15.104057 -2.504513,-0.03505 -0.146667,10.478954 -0.02601,1.85862 z m 1.805282,-128.982079 2.504513,0.0351 0.211402,-15.10406 -2.504513,-0.0351 -0.159779,11.41575 -0.0129,0.9213 z"
         transform="rotate(89.198119)" />
    </g>
  </g>
</svg>
